<?xml version="1.0" encoding="UTF-8"?>
<svg width="82px" height="75px" viewBox="0 0 82 75" version="1.1" xmlns="http://www.w3.org/2000/svg" xmlns:xlink="http://www.w3.org/1999/xlink">
    <!-- Generator: Sketch 50.2 (55047) - http://www.bohemiancoding.com/sketch -->
    <title>Group 10</title>
    <desc>Created with Sketch.</desc>
    <defs>
        <rect id="path-1" x="0" y="0.102282463" width="30.888" height="58.3255179" rx="2.592"></rect>
    </defs>
    <g id="final" stroke="none" stroke-width="1" fill="none" fill-rule="evenodd">
        <g id="page-A-Copy-4" transform="translate(-263.000000, -459.000000)">
            <g id="Group-10" transform="translate(263.000000, 459.000000)">
                <path d="M81.72,43.584 C81.72,48.0956476 80.1239222,51.9475153 76.9317187,55.1397187 C73.7395153,58.3319222 69.8876476,59.928 65.376,59.928 L19.068,59.928 C13.8185988,59.928 9.32829991,58.0623624 5.59696875,54.3310312 C1.86563759,50.5997001 -5.68434189e-14,46.1094012 -5.68434189e-14,40.86 C-5.68434189e-14,37.1144813 1.00730243,33.6882343 3.0219375,30.5811562 C5.03657257,27.4740782 7.68960854,25.1544452 10.981125,23.6221875 C10.9243747,22.8276835 10.896,22.2176271 10.896,21.792 C10.896,15.7764699 13.0241037,10.6406463 17.280375,6.384375 C21.5366463,2.12810372 26.6724699,-5.68434189e-14 32.688,-5.68434189e-14 C37.1712724,-5.68434189e-14 41.2359505,1.24848751 44.8821562,3.7455 C48.528362,6.24251248 51.1884916,9.50560485 52.862625,13.534875 C54.8488849,11.7756162 57.2039864,10.896 59.928,10.896 C62.935765,10.896 65.5036769,11.9600519 67.6318125,14.0881875 C69.7599481,16.2163231 70.824,18.784235 70.824,21.792 C70.824,23.9201356 70.2423183,25.8779911 69.0789375,27.665625 C72.7393308,28.5168793 75.7612381,30.4250789 78.14475,33.3902812 C80.5282619,36.3554836 81.72,39.7533558 81.72,43.584 Z" id="" fill="#0090FC" opacity="0.5"></path>
                <path d="M24.7804286,37.5604286 C18.2192857,37.5604286 12.9004286,42.8792857 12.9004286,49.4404286" id="Oval-4" stroke="#FFFFFF" stroke-width="0.9" stroke-linecap="round" stroke-dasharray="0.180000002682209,1.619999957084656" transform="translate(18.840429, 43.500429) rotate(-45.000000) translate(-18.840429, -43.500429) "></path>
                <path d="M19.3804286,37.5604286 C12.8192857,37.5604286 7.50042856,42.8792857 7.50042856,49.4404286" id="Oval-4" stroke="#FFFFFF" stroke-width="0.9" stroke-linecap="round" stroke-dasharray="0.180000002682209,1.619999957084656" transform="translate(13.440429, 43.500429) rotate(-45.000000) translate(-13.440429, -43.500429) "></path>
                <g id="Group-4" transform="translate(64.800000, 43.560000) scale(-1, 1) translate(-64.800000, -43.560000) translate(53.640000, 35.100000)" stroke="#FFFFFF" stroke-dasharray="0.180000002682209,1.619999957084656" stroke-linecap="round" stroke-width="0.9">
                    <path d="M19.7404286,2.46042856 C13.1792857,2.46042856 7.86042856,7.77928573 7.86042856,14.3404286" id="Oval-4" transform="translate(13.800429, 8.400429) rotate(-45.000000) translate(-13.800429, -8.400429) "></path>
                    <path d="M14.3404286,2.46042856 C7.77928573,2.46042856 2.46042856,7.77928573 2.46042856,14.3404286" id="Oval-4" transform="translate(8.400429, 8.400429) rotate(-45.000000) translate(-8.400429, -8.400429) "></path>
                </g>
                <g id="Group-2" transform="translate(24.660000, 16.560000)">
                    <g id="Path-2">
                        <mask id="mask-2" fill="white">
                            <use xlink:href="#path-1"></use>
                        </mask>
                        <use id="Mask" fill="#3C474E" xlink:href="#path-1"></use>
                        <rect id="Rectangle-2" fill="#0090FC" mask="url(#mask-2)" x="1.62568421" y="5.84278004" width="27.6366316" height="45.8766433"></rect>
                        <rect id="Rectangle-3" fill="#000000" opacity="0.100000001" mask="url(#mask-2)" x="13.4389895" y="53.0178189" width="4.01002105" height="4.00338632" rx="2.00169316"></rect>
                        <rect id="Rectangle-4" fill="#000000" opacity="0.100000001" mask="url(#mask-2)" x="13.2222316" y="2.59679113" width="4.33515789" height="1" rx="0.5"></rect>
                        <rect id="Rectangle-4" fill="#000000" opacity="0.100000001" mask="url(#mask-2)" x="11.0546526" y="2.59679113" width="1" height="1" rx="0.5"></rect>
                        <polygon fill="#FFFFFF" opacity="0.300000012" mask="url(#mask-2)" points="24.0033967 -1.76585178 1.53762632 66.7655117 -7.58440954 66.80186 -7.21439704 -1.93998556"></polygon>
                    </g>
                    <ellipse id="Oval" fill="#F77B2E" opacity="0.800000012" cx="15.3898105" cy="37.6534713" rx="9.97086316" ry="9.95436599"></ellipse>
                    <text id="" font-family="FontAwesome" font-size="15.552" font-weight="normal" fill="#FFFFFF">
                        <tspan x="12.6265263" y="43.1512976"></tspan>
                    </text>
                    <g id="Group-3" opacity="0.400000006" transform="translate(6.827874, 10.170765)" fill="#FFFFFF">
                        <rect id="Rectangle" x="0" y="0" width="17.3406316" height="2.70499076"></rect>
                        <rect id="Rectangle" x="0" y="5.40998152" width="17.3406316" height="2.70499076"></rect>
                        <rect id="Rectangle" x="0" y="10.819963" width="17.3406316" height="2.70499076"></rect>
                    </g>
                </g>
            </g>
        </g>
    </g>
</svg>