<?xml version="1.0" encoding="UTF-8"?>
<svg width="129px" height="61px" viewBox="0 0 129 61" version="1.1" xmlns="http://www.w3.org/2000/svg" xmlns:xlink="http://www.w3.org/1999/xlink">
    <!-- Generator: Sketch 50.2 (55047) - http://www.bohemiancoding.com/sketch -->
    <title>Group 8</title>
    <desc>Created with Sketch.</desc>
    <defs>
        <rect id="path-1" x="0" y="0" width="48.5436308" height="33.3062226" rx="1.08"></rect>
        <rect id="path-3" x="0" y="0.0801979845" width="24.2718154" height="45.7320722" rx="3.24"></rect>
        <rect id="path-5" x="0" y="0" width="48.5436308" height="33.3062226" rx="1.08"></rect>
    </defs>
    <g id="final" stroke="none" stroke-width="1" fill="none" fill-rule="evenodd">
        <g id="page-A-Copy-4" transform="translate(-417.000000, -464.000000)">
            <g id="Group-8" transform="translate(417.000000, 464.000000)">
                <path d="M95.22,44.352 C95.22,48.943148 93.5957975,52.86289 90.3473438,56.1113437 C87.09889,59.3597975 83.179148,60.984 78.588,60.984 L31.464,60.984 C26.1220983,60.984 21.5526752,59.0854877 17.7555937,55.2884062 C13.9585123,51.4913248 12.06,46.9219017 12.06,41.58 C12.06,37.7684809 13.0850522,34.2818596 15.1351875,31.1200312 C17.1853228,27.9582029 19.8851083,25.5976953 23.234625,24.0384375 C23.1768747,23.2299335 23.148,22.6091272 23.148,22.176 C23.148,16.0544694 25.3136033,10.8281467 29.644875,6.496875 C33.9761467,2.16560334 39.2024694,-5.68434189e-14 45.324,-5.68434189e-14 C49.8862728,-5.68434189e-14 54.0225752,1.27048729 57.7330312,3.8115 C61.4434873,6.3525127 64.1504915,9.6731045 65.854125,13.773375 C67.8753851,11.983116 70.2719861,11.088 73.044,11.088 C76.1047653,11.088 78.7179267,12.1708017 80.8835625,14.3364375 C83.0491983,16.5020733 84.132,19.1152347 84.132,22.176 C84.132,24.3416358 83.5400684,26.3339909 82.3561875,28.153125 C86.0810811,29.0193793 89.1562379,30.9612037 91.58175,33.9786562 C94.0072621,36.9961088 95.22,40.4538555 95.22,44.352 Z" id="" fill="#0090FC" opacity="0.5"></path>
                <g id="Group-9" transform="translate(80.460000, 16.020000)">
                    <g id="Group-5">
                        <g id="Path-2">
                            <mask id="mask-2" fill="white">
                                <use xlink:href="#path-1"></use>
                            </mask>
                            <use id="Mask" fill="#A5C2D2" xlink:href="#path-1"></use>
                            <rect id="Rectangle-2" fill="#0090FC" opacity="0.800000012" mask="url(#mask-2)" x="1.76727273" y="1.76870491" width="45.0654545" height="29.6503497"></rect>
                            <g id="Group-2" mask="url(#mask-2)" fill="#D1ED64">
                                <g transform="translate(7.043478, 9.756232)">
                                    <rect id="Rectangle-9" x="27.4902088" y="7.2194507" width="3.06751271" height="7.06250222" rx="0.18"></rect>
                                    <rect id="Rectangle-9" x="31.7199932" y="1.89379789" width="3.06751271" height="12.2530159" rx="0.18"></rect>
                                    <rect id="Rectangle-9" x="18.8137282" y="0.0573658918" width="3.06751271" height="14.0642256" rx="0.18"></rect>
                                    <rect id="Rectangle-9" x="23.0435125" y="2.8120139" width="3.06751271" height="11.3595668" rx="0.18"></rect>
                                    <path d="M15.4730217,13.5561597 L15.4730217,14.5333977 L0.0135215115,14.5333977 L0.0135215115,2.80654226 L0.979740272,2.80654226 L0.979740272,13.5561597 L15.4730217,13.5561597 Z M14.5068029,4.0280897 L14.5068029,7.3491718 C14.5068029,7.45605774 14.4577376,7.53113126 14.3596055,7.57439461 C14.2614734,7.61765797 14.1721494,7.59857148 14.0916308,7.51713458 L13.1782521,6.59333932 L8.39999841,11.4260864 C8.34967427,11.4769844 8.29180237,11.5024331 8.22638098,11.5024331 C8.16095959,11.5024331 8.10308769,11.4769844 8.05276354,11.4260864 L6.29394346,9.64720792 L3.15373248,12.8232313 L1.70440434,11.3573743 L6.12032602,6.89109151 C6.17065017,6.84019345 6.22852207,6.8147448 6.29394346,6.8147448 C6.35936485,6.8147448 6.41723674,6.84019345 6.46756089,6.89109151 L8.22638098,8.66996997 L11.728924,5.1274824 L10.8155453,4.20368715 C10.7350267,4.12225024 10.7161554,4.03190753 10.7589309,3.93265631 C10.8017065,3.83340508 10.8759335,3.78378021 10.9816142,3.78378021 L14.2652482,3.78378021 C14.335702,3.78378021 14.3935739,3.806684 14.4388657,3.85249226 C14.4841574,3.89830052 14.5068029,3.95683241 14.5068029,4.0280897 Z" id=""></path>
                                </g>
                            </g>
                            <polygon fill="#FFFFFF" opacity="0.300000012" mask="url(#mask-2)" points="37.7237772 -1.00837257 2.41653601 38.1257994 -11.9196703 38.1465557 -11.3381581 -1.10780998"></polygon>
                        </g>
                    </g>
                </g>
                <g id="Group-5" transform="translate(0.000000, 9.720000)">
                    <g id="Group-2">
                        <g id="Path-2">
                            <mask id="mask-4" fill="white">
                                <use xlink:href="#path-3"></use>
                            </mask>
                            <use id="Mask" fill="#3C474E" xlink:href="#path-3"></use>
                            <rect id="Rectangle-2" fill="#0090FC" mask="url(#mask-4)" x="1.27746397" y="4.58122702" width="21.7168875" height="35.9711158"></rect>
                            <rect id="Rectangle-3" fill="#000000" opacity="0.100000001" mask="url(#mask-4)" x="10.5603688" y="41.5703933" width="3.15107779" height="3.13898888" rx="1.56949444"></rect>
                            <rect id="Rectangle-4" fill="#000000" opacity="0.100000001" mask="url(#mask-4)" x="10.3900403" y="2.0361009" width="3.40657058" height="1" rx="0.5"></rect>
                            <polygon fill="#FFFFFF" opacity="0.300000012" mask="url(#mask-4)" points="18.8618886 -1.38457512 1.208268 52.3497315 -5.95983516 52.3782316 -5.66907904 -1.52111053"></polygon>
                        </g>
                    </g>
                    <g id="loading" transform="translate(5.545110, 15.434043)" fill="#FFFFFF">
                        <path d="M6.42192102,13.3658093 C6.45849647,13.3658093 6.49504227,13.3655128 6.53155596,13.3649203 C7.07568333,13.3560899 7.50964876,12.9065038 7.50084487,12.3607415 C7.49204099,11.8149792 7.04380164,11.3797098 6.49967427,11.3885402 C6.47378672,11.3889603 6.44786849,11.3891706 6.42192102,11.3891706 C5.87772243,11.3891706 5.43656231,11.8316562 5.43656231,12.37749 C5.43656231,12.9233237 5.87772243,13.3658093 6.42192102,13.3658093 Z" id="Path" opacity="0.5"></path>
                        <path d="M10.3408284,12.0881193 C10.3705032,12.0664432 10.3999993,12.0445223 10.4293134,12.0223591 C10.86388,11.693802 10.9506155,11.0741095 10.6230427,10.6382372 C10.2954698,10.2023649 9.67763369,10.1153687 9.24306711,10.4439258 C9.2223957,10.4595546 9.20159708,10.4750117 9.18067344,10.4902955 C8.74076836,10.811626 8.64386437,11.429801 8.96423233,11.8710278 C9.28460028,12.3122546 9.90092334,12.4094498 10.3408284,12.0881193 Z" id="Path" opacity="0.400000006"></path>
                        <path d="M12.7615633,8.74420609 C12.7728946,8.70912513 12.7839369,8.67394213 12.7946886,8.63866015 C12.95376,8.11666547 12.6608203,7.56416484 12.1403893,7.40461546 C11.6199583,7.24506608 11.0691128,7.53888605 10.9100414,8.06088073 C10.9024914,8.08565613 10.8947374,8.11036202 10.8867804,8.13499637 C10.7190557,8.65425891 11.0027724,9.21158061 11.5204795,9.37980923 C12.0381865,9.54803785 12.5938386,9.26346863 12.7615633,8.74420609 Z" id="Path" opacity="0.300000012"></path>
                        <path d="M12.7562166,4.60508987 C12.7448047,4.57007166 12.7331048,4.53515686 12.7211183,4.50034854 C12.5434561,3.98442158 11.9824439,3.71063657 11.4680625,3.88883261 C10.9536811,4.06702864 10.6807163,4.62972651 10.8583785,5.14565347 C10.8667959,5.17009759 10.875012,5.19461608 10.8830258,5.2192069 C11.0521015,5.73802846 11.6084925,6.02114165 12.1257598,5.85155792 C12.6430272,5.68197419 12.9252923,5.12391143 12.7562166,4.60508987 Z" id="Path" opacity="0.200000003"></path>
                        <path d="M10.3200647,1.26255043 C10.2903372,1.24101058 10.260433,1.21971629 10.2303551,1.19866995 C9.78403424,0.886366776 9.16980637,0.996096716 8.85843876,1.44375863 C8.54707115,1.89142054 8.65647237,2.50749396 9.10279324,2.81979713 C9.12399551,2.83463295 9.14507652,2.8496444 9.16603406,2.86482976 C9.60716582,3.18446403 10.2231123,3.08489635 10.5417891,2.64243913 C10.8604658,2.19998191 10.7611964,1.5821847 10.3200647,1.26255043 Z" id="Path" opacity="0.100000001"></path>
                        <path d="M6.39875678,5.88432762e-06 C6.36206049,0.000131542337 6.32539476,0.000555794347 6.2887621,0.00127811934 C5.74466864,0.012006586 5.31226483,0.463103907 5.32296116,1.00883219 C5.33365749,1.55456047 5.78340347,1.98826351 6.32749693,1.97753504 C6.3534621,1.97702306 6.37945853,1.97672226 6.40548479,1.97663314 C6.94968021,1.97476966 7.38933164,1.53077594 7.38747376,0.984945396 C7.38561587,0.439114852 6.9429522,-0.00185758765 6.39875678,5.88432762e-06 Z" id="Path"></path>
                        <path d="M2.48382339,1.29172637 C2.45424234,1.31349592 2.4248407,1.33550933 2.39562153,1.35776412 C1.96221938,1.68786494 1.87767547,2.30786207 2.20678743,2.74256645 C2.53589938,3.17727083 3.1540392,3.26206876 3.58744135,2.93196793 C3.60804662,2.91627393 3.62877957,2.90075088 3.64963801,2.88540056 C4.08840064,2.56250245 4.18311155,1.94398569 3.86118073,1.50390471 C3.53924991,1.06382374 2.92258603,0.96882826 2.48382339,1.29172637 Z" id="Path" opacity="0.900000036"></path>
                        <path d="M0.0750190199,4.64418306 C0.0638128951,4.67930458 0.0528961765,4.71452726 0.0422702703,4.74984805 C-0.114937412,5.27241045 0.179972078,5.8238559 0.700969054,5.98153594 C1.22196603,6.13921598 1.77175953,5.84342038 1.92896722,5.32085798 C1.93642886,5.2960553 1.94409469,5.27132157 1.95196376,5.24665881 C2.11783446,4.7267975 1.83213084,4.17049785 1.31382686,4.00412877 C0.79552288,3.83775968 0.240889718,4.12432175 0.0750190199,4.64418306 Z" id="Path" opacity="0.800000012"></path>
                        <path d="M0.0950195702,8.78323835 C0.106572937,8.81826601 0.118414826,8.85318909 0.130543744,8.88800449 C0.310056649,9.40328658 0.872047932,9.67504403 1.38578641,9.49499175 C1.89952488,9.31493947 2.17046824,8.75125959 1.99095533,8.2359775 C1.98243768,8.21152804 1.97412175,8.18700342 1.96600855,8.16240569 C1.79508392,7.64419396 1.23768698,7.36307848 0.721027636,7.53451668 C0.204368296,7.70595488 -0.0759050619,8.26502662 0.0950195702,8.78323835 Z" id="Path" opacity="0.699999988"></path>
                        <path d="M2.54256741,12.1167903 C2.57240285,12.138251 2.60241464,12.1594649 2.63259969,12.1804297 C3.08000323,12.4911705 3.69384601,12.3792937 4.0036559,11.9305458 C4.31346579,11.481798 4.20192409,10.8661108 3.75452055,10.55537 C3.73324374,10.5405924 3.71208787,10.5256383 3.69105516,10.5105094 C3.2488217,10.1924104 2.63322291,10.2941184 2.31607678,10.7376806 C1.99893064,11.1812428 2.10033395,11.7986913 2.54256741,12.1167903 Z" id="Path" opacity="0.600000024"></path>
                    </g>
                </g>
                <g id="Group-8-Copy-2" transform="translate(18.720000, 23.760000)" stroke="#FFFFFF" stroke-dasharray="0.1728000015020371,1.555199933052063" stroke-linecap="round" stroke-width="0.864">
                    <g id="Group-7" transform="translate(12.093812, 9.090000) scale(-1, 1) translate(-12.093812, -9.090000) translate(0.067624, 0.000000)">
                        <path d="M21.2763917,2.64320461 C14.2606072,2.64320461 8.5731901,8.34894408 8.5731901,15.3873304" id="Oval-4" transform="translate(14.924791, 9.015268) rotate(-45.000000) translate(-14.924791, -9.015268) "></path>
                        <path d="M15.5033651,2.64320461 C8.48758063,2.64320461 2.80016357,8.34894408 2.80016357,15.3873304" id="Oval-4" transform="translate(9.151764, 9.015268) rotate(-45.000000) translate(-9.151764, -9.015268) "></path>
                    </g>
                </g>
                <g id="Group-8-Copy-2" transform="translate(55.440000, 23.760000)" stroke="#FFFFFF" stroke-dasharray="0.1728000015020371,1.555199933052063" stroke-linecap="round" stroke-width="0.864">
                    <g id="Group-7" transform="translate(11.970000, 9.090000) scale(-1, 1) translate(-11.970000, -9.090000) ">
                        <path d="M21.2763917,2.64320461 C14.2606072,2.64320461 8.5731901,8.34894408 8.5731901,15.3873304" id="Oval-4" transform="translate(14.924791, 9.015268) rotate(-45.000000) translate(-14.924791, -9.015268) "></path>
                        <path d="M15.5033651,2.64320461 C8.48758063,2.64320461 2.80016357,8.34894408 2.80016357,15.3873304" id="Oval-4" transform="translate(9.151764, 9.015268) rotate(-45.000000) translate(-9.151764, -9.015268) "></path>
                    </g>
                </g>
                <g id="Group-9" transform="translate(80.460000, 16.020000)">
                    <g id="Group-5">
                        <g id="Path-2">
                            <mask id="mask-6" fill="white">
                                <use xlink:href="#path-5"></use>
                            </mask>
                            <use id="Mask" fill="#A5C2D2" xlink:href="#path-5"></use>
                            <rect id="Rectangle-2" fill="#0090FC" opacity="0.800000012" mask="url(#mask-6)" x="1.76727273" y="1.76870491" width="45.0654545" height="29.6503497"></rect>
                            <g id="Group-2" mask="url(#mask-6)" fill="#D1ED64">
                                <g transform="translate(7.043478, 9.756232)">
                                    <rect id="Rectangle-9" x="27.4902088" y="7.2194507" width="3.06751271" height="7.06250222" rx="0.18"></rect>
                                    <rect id="Rectangle-9" x="31.7199932" y="1.89379789" width="3.06751271" height="12.2530159" rx="0.18"></rect>
                                    <rect id="Rectangle-9" x="18.8137282" y="0.0573658918" width="3.06751271" height="14.0642256" rx="0.18"></rect>
                                    <rect id="Rectangle-9" x="23.0435125" y="2.8120139" width="3.06751271" height="11.3595668" rx="0.18"></rect>
                                    <path d="M15.4730217,13.5561597 L15.4730217,14.5333977 L0.0135215115,14.5333977 L0.0135215115,2.80654226 L0.979740272,2.80654226 L0.979740272,13.5561597 L15.4730217,13.5561597 Z M14.5068029,4.0280897 L14.5068029,7.3491718 C14.5068029,7.45605774 14.4577376,7.53113126 14.3596055,7.57439461 C14.2614734,7.61765797 14.1721494,7.59857148 14.0916308,7.51713458 L13.1782521,6.59333932 L8.39999841,11.4260864 C8.34967427,11.4769844 8.29180237,11.5024331 8.22638098,11.5024331 C8.16095959,11.5024331 8.10308769,11.4769844 8.05276354,11.4260864 L6.29394346,9.64720792 L3.15373248,12.8232313 L1.70440434,11.3573743 L6.12032602,6.89109151 C6.17065017,6.84019345 6.22852207,6.8147448 6.29394346,6.8147448 C6.35936485,6.8147448 6.41723674,6.84019345 6.46756089,6.89109151 L8.22638098,8.66996997 L11.728924,5.1274824 L10.8155453,4.20368715 C10.7350267,4.12225024 10.7161554,4.03190753 10.7589309,3.93265631 C10.8017065,3.83340508 10.8759335,3.78378021 10.9816142,3.78378021 L14.2652482,3.78378021 C14.335702,3.78378021 14.3935739,3.806684 14.4388657,3.85249226 C14.4841574,3.89830052 14.5068029,3.95683241 14.5068029,4.0280897 Z" id=""></path>
                                </g>
                            </g>
                            <polygon fill="#FFFFFF" opacity="0.300000012" mask="url(#mask-6)" points="37.7237772 -1.00837257 2.41653601 38.1257994 -11.9196703 38.1465557 -11.3381581 -1.10780998"></polygon>
                        </g>
                    </g>
                </g>
                <ellipse id="Oval" fill="#F77B2E" opacity="0.800000012" cx="51.9108632" cy="32.634366" rx="9.97086316" ry="9.95436599"></ellipse>
                <text id="" font-family="FontAwesome" font-size="15.552" font-weight="normal" fill="#FFFFFF">
                    <tspan x="47.16" y="37.66"></tspan>
                </text>
            </g>
        </g>
    </g>
</svg>