<?xml version="1.0" encoding="UTF-8"?>
<svg width="168px" height="78px" viewBox="0 0 168 78" version="1.1" xmlns="http://www.w3.org/2000/svg" xmlns:xlink="http://www.w3.org/1999/xlink">
    <!-- Generator: Sketch 50.2 (55047) - http://www.bohemiancoding.com/sketch -->
    <title>Group</title>
    <desc>Created with Sketch.</desc>
    <defs>
        <path d="M14.2614,13.9340458 C17.1954006,13.9340458 19.937474,13.6643477 22.4877023,13.1249436 C25.0379307,12.5855394 27.0496098,11.7889894 28.5228,10.7352697 L28.5228,26.5786195 C28.5228,27.444175 27.8852525,28.2469971 26.6101383,28.9871098 C25.3350241,29.7272224 23.6018852,30.3136589 21.4106695,30.7464366 C19.2194539,31.1792144 16.8363879,31.3956 14.2614,31.3956 C11.6864121,31.3956 9.30334611,31.1792144 7.11213047,30.7464366 C4.92091483,30.3136589 3.18777591,29.7272224 1.91266172,28.9871098 C0.637547531,28.2469971 0,27.444175 0,26.5786195 L0,10.7352697 C1.47319018,11.7889894 3.48486928,12.5855394 6.03509766,13.1249436 C8.58532603,13.6643477 11.3273994,13.9340458 14.2614,13.9340458 Z M14.2614,0 C16.8363879,1.90207362e-14 19.2194539,0.214734895 21.4106695,0.644211127 C23.6018852,1.07368736 25.3350241,1.65565005 26.6101383,2.39011665 C27.8852525,3.12458324 28.5228,3.92128083 28.5228,4.78023329 L28.5228,7.17034994 C28.5228,8.0293024 27.8852525,8.82599998 26.6101383,9.56046658 C25.3350241,10.2949332 23.6018852,10.8768959 21.4106695,11.3063721 C19.2194539,11.7358483 16.8363879,11.9505832 14.2614,11.9505832 C11.6864121,11.9505832 9.30334611,11.7358483 7.11213047,11.3063721 C4.92091483,10.8768959 3.18777591,10.2949332 1.91266172,9.56046658 C0.637547531,8.82599998 0,8.0293024 0,7.17034994 L0,4.78023329 C0,3.92128083 0.637547531,3.12458324 1.91266172,2.39011665 C3.18777591,1.65565005 4.92091483,1.07368736 7.11213047,0.644211127 C9.30334611,0.214734895 11.6864121,1.90207362e-14 14.2614,0 Z" id="path-1"></path>
        <path d="M14.2614,3.82592938 C22.8259464,3.82592938 26.976608,2.24083238 28.5228,0 L28.5228,3.19360563 C28.5228,4.05776207 27.8852525,4.85928645 26.6101383,5.59820282 C25.3350241,6.33711919 23.6018852,6.9226077 21.4106695,7.35468592 C19.2194539,7.78676413 16.8363879,8.0028 14.2614,8.0028 C11.6864121,8.0028 9.30334611,7.78676413 7.11213047,7.35468592 C4.92091483,6.9226077 3.18777591,6.33711919 1.91266172,5.59820282 C0.637547531,4.85928645 0,4.05776207 0,3.19360563 L0,0 C1.67320761,1.93092112 5.69685364,3.82592938 14.2614,3.82592938 Z" id="path-3"></path>
        <path d="M14.2614,13.9340458 C17.1954006,13.9340458 19.937474,13.6643477 22.4877023,13.1249436 C25.0379307,12.5855394 27.0496098,11.7889894 28.5228,10.7352697 L28.5228,26.5786195 C28.5228,27.444175 27.8852525,28.2469971 26.6101383,28.9871098 C25.3350241,29.7272224 23.6018852,30.3136589 21.4106695,30.7464366 C19.2194539,31.1792144 16.8363879,31.3956 14.2614,31.3956 C11.6864121,31.3956 9.30334611,31.1792144 7.11213047,30.7464366 C4.92091483,30.3136589 3.18777591,29.7272224 1.91266172,28.9871098 C0.637547531,28.2469971 0,27.444175 0,26.5786195 L0,10.7352697 C1.47319018,11.7889894 3.48486928,12.5855394 6.03509766,13.1249436 C8.58532603,13.6643477 11.3273994,13.9340458 14.2614,13.9340458 Z M14.2614,0 C16.8363879,1.90207362e-14 19.2194539,0.214734895 21.4106695,0.644211127 C23.6018852,1.07368736 25.3350241,1.65565005 26.6101383,2.39011665 C27.8852525,3.12458324 28.5228,3.92128083 28.5228,4.78023329 L28.5228,7.17034994 C28.5228,8.0293024 27.8852525,8.82599998 26.6101383,9.56046658 C25.3350241,10.2949332 23.6018852,10.8768959 21.4106695,11.3063721 C19.2194539,11.7358483 16.8363879,11.9505832 14.2614,11.9505832 C11.6864121,11.9505832 9.30334611,11.7358483 7.11213047,11.3063721 C4.92091483,10.8768959 3.18777591,10.2949332 1.91266172,9.56046658 C0.637547531,8.82599998 0,8.0293024 0,7.17034994 L0,4.78023329 C0,3.92128083 0.637547531,3.12458324 1.91266172,2.39011665 C3.18777591,1.65565005 4.92091483,1.07368736 7.11213047,0.644211127 C9.30334611,0.214734895 11.6864121,1.90207362e-14 14.2614,0 Z" id="path-5"></path>
        <path d="M14.2614,3.82592938 C22.8259464,3.82592938 26.976608,2.24083238 28.5228,0 L28.5228,3.19360563 C28.5228,4.05776207 27.8852525,4.85928645 26.6101383,5.59820282 C25.3350241,6.33711919 23.6018852,6.9226077 21.4106695,7.35468592 C19.2194539,7.78676413 16.8363879,8.0028 14.2614,8.0028 C11.6864121,8.0028 9.30334611,7.78676413 7.11213047,7.35468592 C4.92091483,6.9226077 3.18777591,6.33711919 1.91266172,5.59820282 C0.637547531,4.85928645 0,4.05776207 0,3.19360563 L0,0 C1.67320761,1.93092112 5.69685364,3.82592938 14.2614,3.82592938 Z" id="path-7"></path>
        <rect id="path-9" x="0" y="0.0778063829" width="23.3928" height="44.368286" rx="1.96992"></rect>
        <rect id="path-11" x="0" y="0.0778063829" width="23.3928" height="44.368286" rx="1.96992"></rect>
    </defs>
    <g id="final" stroke="none" stroke-width="1" fill="none" fill-rule="evenodd">
        <g id="page-A-Copy-4" transform="translate(-39.000000, -462.000000)">
            <g id="Group" transform="translate(35.000000, 462.000000)">
                <circle id="Oval-3" fill="#0090FC" opacity="0.200000003" cx="62.2782" cy="34.1658" r="34.1658"></circle>
                <circle id="Oval-3" fill="#0090FC" opacity="0.200000003" cx="114.1938" cy="34.1658" r="34.1658"></circle>
                <g id="Group-8-Copy-2" transform="translate(0.000000, 23.803200)" stroke="#0090FC" stroke-dasharray="0.1641600042581558,1.47743998169899" stroke-linecap="round" stroke-width="0.8208">
                    <g id="Group-7" transform="translate(48.083122, 8.618400) scale(-1, 1) translate(-48.083122, -8.618400) translate(36.658243, 0.000000)">
                        <path d="M20.2125721,2.50607201 C13.5475768,2.50607201 8.14453059,7.91579094 8.14453059,14.5890174" id="Oval-4" transform="translate(14.178551, 8.547545) rotate(-45.000000) translate(-14.178551, -8.547545) "></path>
                        <path d="M14.7281969,2.50607201 C8.0632016,2.50607201 2.66015539,7.91579094 2.66015539,14.5890174" id="Oval-4" transform="translate(8.694176, 8.547545) rotate(-45.000000) translate(-8.694176, -8.547545) "></path>
                    </g>
                    <g id="Group-7">
                        <path d="M20.2125721,2.50607201 C13.5475768,2.50607201 8.14453059,7.91579094 8.14453059,14.5890174" id="Oval-4" transform="translate(14.178551, 8.547545) rotate(-45.000000) translate(-14.178551, -8.547545) "></path>
                        <path d="M14.7281969,2.50607201 C8.0632016,2.50607201 2.66015539,7.91579094 2.66015539,14.5890174" id="Oval-4" transform="translate(8.694176, 8.547545) rotate(-45.000000) translate(-8.694176, -8.547545) "></path>
                    </g>
                </g>
                <g id="Group-8-Copy-2" transform="translate(116.348400, 23.803200)" stroke="#0090FC" stroke-dasharray="0.1641600042581558,1.47743998169899" stroke-linecap="round" stroke-width="0.8208">
                    <g id="Group-7" transform="translate(48.083122, 8.618400) scale(-1, 1) translate(-48.083122, -8.618400) translate(36.658243, 0.000000)">
                        <path d="M20.2125721,2.50607201 C13.5475768,2.50607201 8.14453059,7.91579094 8.14453059,14.5890174" id="Oval-4" transform="translate(14.178551, 8.547545) rotate(-45.000000) translate(-14.178551, -8.547545) "></path>
                        <path d="M14.7281969,2.50607201 C8.0632016,2.50607201 2.66015539,7.91579094 2.66015539,14.5890174" id="Oval-4" transform="translate(8.694176, 8.547545) rotate(-45.000000) translate(-8.694176, -8.547545) "></path>
                    </g>
                    <g id="Group-7">
                        <path d="M20.2125721,2.50607201 C13.5475768,2.50607201 8.14453059,7.91579094 8.14453059,14.5890174" id="Oval-4" transform="translate(14.178551, 8.547545) rotate(-45.000000) translate(-14.178551, -8.547545) "></path>
                        <path d="M14.7281969,2.50607201 C8.0632016,2.50607201 2.66015539,7.91579094 2.66015539,14.5890174" id="Oval-4" transform="translate(8.694176, 8.547545) rotate(-45.000000) translate(-8.694176, -8.547545) "></path>
                    </g>
                </g>
                <g id="Group-6" transform="translate(49.453200, 45.964800)">
                    <g id="Group-2">
                        <g id="Path-4">
                            <mask id="mask-2" fill="white">
                                <use xlink:href="#path-1"></use>
                            </mask>
                            <use id="Mask" fill="#C0D4DF" xlink:href="#path-1"></use>
                            <polygon fill="#4A4A4A" opacity="0.200000003" mask="url(#mask-2)" points="21.7430641 11.3554482 21.7430641 36.4520308 35.4978833 36.4520308 36.5599584 7.79166049"></polygon>
                        </g>
                        <g id="Path-4" transform="translate(0.000000, 4.514400)">
                            <mask id="mask-4" fill="white">
                                <use xlink:href="#path-3"></use>
                            </mask>
                            <use id="Mask" fill="#B1C7D4" xlink:href="#path-3"></use>
                            <polygon fill="#3C474E" opacity="0.100000001" mask="url(#mask-4)" points="21.86748 -1.90178771 21.86748 34.7542633 35.7611036 34.7542633 35.2325911 -2.47345477"></polygon>
                        </g>
                    </g>
                    <polygon id="Triangle-2" stroke="#FFFFFF" stroke-width="1.026" fill="#4BABB6" points="14.1588 17.8524 19.2888 25.65 9.0288 25.65"></polygon>
                </g>
                <g id="Group-7" transform="translate(98.496000, 45.964800)">
                    <g id="Group-2">
                        <g id="Path-4">
                            <mask id="mask-6" fill="white">
                                <use xlink:href="#path-5"></use>
                            </mask>
                            <use id="Mask" fill="#C0D4DF" xlink:href="#path-5"></use>
                            <polygon fill="#4A4A4A" opacity="0.200000003" mask="url(#mask-6)" points="21.7430641 11.3554482 21.7430641 36.4520308 35.4978833 36.4520308 36.5599584 7.79166049"></polygon>
                        </g>
                        <g id="Path-4" transform="translate(0.000000, 4.514400)">
                            <mask id="mask-8" fill="white">
                                <use xlink:href="#path-7"></use>
                            </mask>
                            <use id="Mask" fill="#B1C7D4" xlink:href="#path-7"></use>
                            <polygon fill="#3C474E" opacity="0.100000001" mask="url(#mask-8)" points="21.86748 -1.90178771 21.86748 34.7542633 35.7611036 34.7542633 35.2325911 -2.47345477"></polygon>
                        </g>
                    </g>
                    <circle id="Oval-2" stroke="#FFFFFF" stroke-width="1.026" fill="#D1ED64" cx="14.1588" cy="21.546" r="4.104"></circle>
                </g>
                <g id="Group-2" transform="translate(18.262800, 11.901600)">
                    <g id="Path-2">
                        <mask id="mask-10" fill="white">
                            <use xlink:href="#path-9"></use>
                        </mask>
                        <use id="Mask" fill="#3C474E" xlink:href="#path-9"></use>
                        <rect id="Rectangle-2" fill="#4BABB6" opacity="0.800000012" mask="url(#mask-10)" x="1.2312" y="4.44460924" width="20.9304" height="34.8984133"></rect>
                        <rect id="Rectangle-3" fill="#000000" opacity="0.100000001" mask="url(#mask-10)" x="10.17792" y="40.3307135" width="3.03696" height="3.04538041" rx="1.51848"></rect>
                        <rect id="Rectangle-4" fill="#000000" opacity="0.100000001" mask="url(#mask-10)" x="10.01376" y="1.97538189" width="3.2832" height="1" rx="0.5"></rect>
                        <rect id="Rectangle-4" fill="#000000" opacity="0.100000001" mask="url(#mask-10)" x="8.37216" y="1.97538189" width="1" height="1" rx="0.5"></rect>
                        <polygon id="Triangle-2" fill="#FFFFFF" mask="url(#mask-10)" points="11.6483287 15.5952 18.1666573 25.5469962 5.13 25.5469962"></polygon>
                        <polygon fill="#FFFFFF" opacity="0.300000012" mask="url(#mask-10)" points="18.1787962 -1.3432854 1.16451 50.7885987 -5.74399688 50.8162489 -5.46377063 -1.47574916"></polygon>
                    </g>
                </g>
                <g id="Group-2" transform="translate(134.406000, 13.132800)">
                    <g id="Path-2">
                        <mask id="mask-12" fill="white">
                            <use xlink:href="#path-11"></use>
                        </mask>
                        <use id="Mask" fill="#3C474E" xlink:href="#path-11"></use>
                        <rect id="Rectangle-2" fill="#D1ED64" opacity="0.800000012" mask="url(#mask-12)" x="1.2312" y="4.44460924" width="20.9304" height="34.8984133"></rect>
                        <rect id="Rectangle-3" fill="#000000" opacity="0.100000001" mask="url(#mask-12)" x="10.17792" y="40.3307135" width="3.03696" height="3.04538041" rx="1.51848"></rect>
                        <rect id="Rectangle-4" fill="#000000" opacity="0.100000001" mask="url(#mask-12)" x="10.01376" y="1.97538189" width="3.2832" height="1" rx="0.5"></rect>
                        <rect id="Rectangle-4" fill="#000000" opacity="0.100000001" mask="url(#mask-12)" x="8.37216" y="1.97538189" width="1" height="1" rx="0.5"></rect>
                        <ellipse id="Oval-2" fill="#FFFFFF" mask="url(#mask-12)" cx="11.7262962" cy="20.5718679" rx="4.95469621" ry="4.9766679"></ellipse>
                        <polygon fill="#FFFFFF" opacity="0.300000012" mask="url(#mask-12)" points="18.1787962 -1.3432854 1.16451 50.7885987 -5.74399688 50.8162489 -5.46377063 -1.47574916"></polygon>
                    </g>
                </g>
                <text id="" font-family="FontAwesome" font-size="17.72928" font-weight="normal" fill="#E08A58">
                    <tspan x="82.9008" y="39.2136"></tspan>
                </text>
            </g>
        </g>
    </g>
</svg>