<?xml version="1.0" encoding="UTF-8"?>
<!--
 Copyright (C) 2018 by eHealth Africa : http://www.eHealthAfrica.org

 See the NOTICE file distributed with this work for additional information
 regarding copyright ownership.

 Licensed under the Apache License, Version 2.0 (the "License");
 you may not use this file except in compliance with
 the License.  You may obtain a copy of the License at

   http://www.apache.org/licenses/LICENSE-2.0

 Unless required by applicable law or agreed to in writing,
 software distributed under the License is distributed on an
 "AS IS" BASIS, WITHOUT WARRANTIES OR CONDITIONS OF ANY
 KIND, either express or implied.  See the License for the
 specific language governing permissions and limitations
 under the License.
-->
<svg
  version="1.1"
  xmlns="http://www.w3.org/2000/svg"
  width="26px"
  height="26px"
  viewBox="0 0 26 26">
  <g transform="translate(-25, -10) translate(38, 23) rotate(90) translate(-38, -23) translate(25, 10)">
    <circle fill="#9FD0F8" cx="13" cy="13" r="3.9"></circle>
    <path fill="#5EB1F2" fill-rule="nonzero" d="M19.3057886,14.3 L25.8716244,14.3 C25.2193826,20.8693195 19.6767647,26 12.9358122,26 C6.19485965,26 0.652241759,20.8693195 3.01460246e-13,14.3 L6.56583573,14.3 C7.16808717,17.2669124 9.7911669,19.5 12.9358122,19.5 C16.0804575,19.5 18.7035372,17.2669124 19.3057886,14.3 Z M19.3057886,11.7 L25.8716244,11.7 C25.2193826,5.1306805 19.6767647,0 12.9358122,0 C6.19485965,0 0.652241759,5.1306805 2.91384972e-13,11.7 L6.56583573,11.7 C7.16808717,8.73308758 9.7911669,6.5 12.9358122,6.5 C16.0804575,6.5 18.7035372,8.73308758 19.3057886,11.7 Z"></path>
  </g>
</svg>
